<?xml version="1.0" encoding="UTF-8"?>
<svg xmlns="http://www.w3.org/2000/svg" xmlns:xlink="http://www.w3.org/1999/xlink" width="45px" height="45px" viewBox="0 0 45 45" version="1.1">
<g id="surface1">
<path style=" stroke:none;fill-rule:nonzero;fill:rgb(0%,0%,0%);fill-opacity:1;" d="M 21.09375 15.46875 C 21.09375 14.691406 20.464844 14.0625 19.6875 14.0625 C 18.910156 14.0625 18.28125 14.691406 18.28125 15.46875 L 18.28125 17.25 L 16.738281 16.359375 C 16.300781 16.105469 15.761719 16.101562 15.324219 16.355469 C 14.886719 16.605469 14.617188 17.070312 14.621094 17.578125 C 14.621094 18.082031 14.890625 18.546875 15.332031 18.796875 L 16.875 19.6875 L 15.332031 20.578125 C 14.890625 20.828125 14.621094 21.292969 14.621094 21.796875 C 14.617188 22.304688 14.886719 22.769531 15.324219 23.019531 C 15.761719 23.273438 16.300781 23.269531 16.738281 23.015625 L 18.28125 22.125 L 18.28125 23.90625 C 18.28125 24.683594 18.910156 25.3125 19.6875 25.3125 C 20.464844 25.3125 21.09375 24.683594 21.09375 23.90625 L 21.09375 22.125 L 22.636719 23.015625 C 23.074219 23.269531 23.613281 23.273438 24.050781 23.019531 C 24.488281 22.769531 24.757812 22.304688 24.753906 21.796875 C 24.753906 21.292969 24.484375 20.828125 24.042969 20.578125 L 22.5 19.6875 L 24.042969 18.796875 C 24.484375 18.546875 24.753906 18.082031 24.753906 17.578125 C 24.757812 17.070312 24.488281 16.605469 24.050781 16.355469 C 23.613281 16.101562 23.074219 16.105469 22.636719 16.359375 L 21.09375 17.25 Z M 15.46875 28.125 C 14.691406 28.125 14.0625 28.753906 14.0625 29.53125 C 14.0625 30.308594 14.691406 30.9375 15.46875 30.9375 L 29.53125 30.9375 C 30.308594 30.9375 30.9375 30.308594 30.9375 29.53125 C 30.9375 28.753906 30.308594 28.125 29.53125 28.125 Z M 15.46875 33.75 C 14.691406 33.75 14.0625 34.378906 14.0625 35.15625 C 14.0625 35.933594 14.691406 36.5625 15.46875 36.5625 L 29.53125 36.5625 C 30.308594 36.5625 30.9375 35.933594 30.9375 35.15625 C 30.9375 34.378906 30.308594 33.75 29.53125 33.75 Z M 15.46875 33.75 "/>
<path style=" stroke:none;fill-rule:nonzero;fill:rgb(0%,0%,0%);fill-opacity:1;" d="M 39.375 39.375 L 39.375 12.65625 L 26.71875 0 L 11.25 0 C 8.144531 0 5.625 2.519531 5.625 5.625 L 5.625 39.375 C 5.625 42.480469 8.144531 45 11.25 45 L 33.75 45 C 36.855469 45 39.375 42.480469 39.375 39.375 Z M 26.71875 8.4375 C 26.71875 10.765625 28.609375 12.65625 30.9375 12.65625 L 36.5625 12.65625 L 36.5625 39.375 C 36.5625 40.929688 35.304688 42.1875 33.75 42.1875 L 11.25 42.1875 C 9.695312 42.1875 8.4375 40.929688 8.4375 39.375 L 8.4375 5.625 C 8.4375 4.070312 9.695312 2.8125 11.25 2.8125 L 26.71875 2.8125 Z M 26.71875 8.4375 "/>
</g>
</svg>
