<?xml version="1.0" encoding="UTF-8"?>
<svg xmlns="http://www.w3.org/2000/svg" xmlns:xlink="http://www.w3.org/1999/xlink" width="45px" height="45px" viewBox="0 0 45 45" version="1.1">
<g id="surface1">
<path style=" stroke:none;fill-rule:nonzero;fill:rgb(0%,0%,0%);fill-opacity:1;" d="M 0 9.84375 C 0 7.515625 1.890625 5.625 4.21875 5.625 L 29.53125 5.625 C 31.859375 5.625 33.75 7.515625 33.75 9.84375 L 33.75 14.0625 L 36.617188 14.0625 C 37.898438 14.0625 39.109375 14.644531 39.910156 15.644531 L 44.074219 20.847656 C 44.675781 21.597656 45 22.527344 45 23.488281 L 45 29.53125 C 45 31.859375 43.109375 33.75 40.78125 33.75 L 39.375 33.75 C 39.375 36.855469 36.855469 39.375 33.75 39.375 C 30.644531 39.375 28.125 36.855469 28.125 33.75 L 14.0625 33.75 C 14.066406 35.792969 12.964844 37.675781 11.183594 38.671875 C 9.402344 39.667969 7.222656 39.621094 5.484375 38.550781 C 3.746094 37.476562 2.726562 35.550781 2.816406 33.511719 C 1.128906 32.917969 0 31.320312 0 29.53125 Z M 3.640625 30.8125 C 4.675781 29.121094 6.523438 28.097656 8.507812 28.121094 C 10.492188 28.148438 12.316406 29.21875 13.308594 30.9375 L 28.878906 30.9375 C 29.375 30.082031 30.082031 29.375 30.9375 28.878906 L 30.9375 9.84375 C 30.9375 9.066406 30.308594 8.4375 29.53125 8.4375 L 4.21875 8.4375 C 3.441406 8.4375 2.8125 9.066406 2.8125 9.84375 L 2.8125 29.53125 C 2.8125 30.085938 3.136719 30.585938 3.640625 30.8125 Z M 33.75 28.125 C 35.757812 28.125 37.617188 29.195312 38.621094 30.9375 L 40.78125 30.9375 C 41.558594 30.9375 42.1875 30.308594 42.1875 29.53125 L 42.1875 23.484375 C 42.1875 23.164062 42.078125 22.855469 41.878906 22.605469 L 37.714844 17.402344 C 37.449219 17.070312 37.046875 16.875 36.617188 16.875 L 33.75 16.875 Z M 8.4375 30.9375 C 6.882812 30.9375 5.625 32.195312 5.625 33.75 C 5.625 35.304688 6.882812 36.5625 8.4375 36.5625 C 9.992188 36.5625 11.25 35.304688 11.25 33.75 C 11.25 32.195312 9.992188 30.9375 8.4375 30.9375 Z M 33.75 30.9375 C 32.195312 30.9375 30.9375 32.195312 30.9375 33.75 C 30.9375 35.304688 32.195312 36.5625 33.75 36.5625 C 35.304688 36.5625 36.5625 35.304688 36.5625 33.75 C 36.5625 32.195312 35.304688 30.9375 33.75 30.9375 Z M 33.75 30.9375 "/>
</g>
</svg>
