<?xml version="1.0" encoding="UTF-8"?>
<svg xmlns="http://www.w3.org/2000/svg" xmlns:xlink="http://www.w3.org/1999/xlink" width="45px" height="45px" viewBox="0 0 45 45" version="1.1">
<g id="surface1">
<path style=" stroke:none;fill-rule:nonzero;fill:rgb(0%,0%,0%);fill-opacity:1;" d="M 0 11.25 C 0 11.25 0 5.625 5.625 5.625 L 39.375 5.625 C 39.375 5.625 45 5.625 45 11.25 L 45 28.125 C 45 28.125 45 33.75 39.375 33.75 L 28.125 33.75 C 28.125 35.625 28.359375 37.03125 28.828125 37.96875 L 30.9375 37.96875 C 31.714844 37.96875 32.34375 38.597656 32.34375 39.375 C 32.34375 40.152344 31.714844 40.78125 30.9375 40.78125 L 14.0625 40.78125 C 13.285156 40.78125 12.65625 40.152344 12.65625 39.375 C 12.65625 38.597656 13.285156 37.96875 14.0625 37.96875 L 16.171875 37.96875 C 16.640625 37.03125 16.875 35.625 16.875 33.75 L 5.625 33.75 C 5.625 33.75 0 33.75 0 28.125 Z M 3.933594 8.84375 C 3.621094 9.058594 3.375 9.351562 3.21875 9.695312 C 2.976562 10.191406 2.839844 10.726562 2.8125 11.277344 L 2.8125 28.125 C 2.8125 29.039062 3.03125 29.535156 3.21875 29.816406 C 3.417969 30.113281 3.699219 30.347656 4.070312 30.53125 C 4.542969 30.761719 5.058594 30.898438 5.582031 30.933594 L 5.652344 30.9375 L 39.375 30.9375 C 40.289062 30.9375 40.785156 30.71875 41.066406 30.53125 C 41.378906 30.316406 41.625 30.023438 41.78125 29.679688 C 42.011719 29.207031 42.148438 28.691406 42.183594 28.167969 L 42.1875 28.097656 L 42.1875 11.25 C 42.1875 10.335938 41.96875 9.839844 41.78125 9.558594 C 41.566406 9.246094 41.273438 9 40.929688 8.84375 C 40.433594 8.601562 39.898438 8.464844 39.347656 8.4375 L 5.625 8.4375 C 4.710938 8.4375 4.214844 8.65625 3.933594 8.84375 Z M 3.933594 8.84375 "/>
</g>
</svg>
