<?xml version="1.0" encoding="UTF-8"?>
<svg xmlns="http://www.w3.org/2000/svg" xmlns:xlink="http://www.w3.org/1999/xlink" width="45px" height="45px" viewBox="0 0 45 45" version="1.1">
<g id="surface1">
<path style=" stroke:none;fill-rule:evenodd;fill:rgb(0%,0%,0%);fill-opacity:1;" d="M 42.1875 5.625 C 42.1875 4.070312 40.929688 2.8125 39.375 2.8125 L 5.625 2.8125 C 4.070312 2.8125 2.8125 4.070312 2.8125 5.625 L 2.8125 39.375 C 2.8125 40.929688 4.070312 42.1875 5.625 42.1875 L 39.375 42.1875 C 40.929688 42.1875 42.1875 40.929688 42.1875 39.375 Z M 0 5.625 C 0 2.519531 2.519531 0 5.625 0 L 39.375 0 C 42.480469 0 45 2.519531 45 5.625 L 45 39.375 C 45 42.480469 42.480469 45 39.375 45 L 5.625 45 C 2.519531 45 0 42.480469 0 39.375 Z M 12.65625 21.09375 C 11.878906 21.09375 11.25 21.722656 11.25 22.5 C 11.25 23.277344 11.878906 23.90625 12.65625 23.90625 L 28.949219 23.90625 L 22.910156 29.941406 C 22.359375 30.492188 22.359375 31.382812 22.910156 31.933594 C 23.460938 32.484375 24.351562 32.484375 24.902344 31.933594 L 33.339844 23.496094 C 33.605469 23.230469 33.753906 22.875 33.753906 22.5 C 33.753906 22.125 33.605469 21.769531 33.339844 21.503906 L 24.902344 13.066406 C 24.351562 12.515625 23.460938 12.515625 22.910156 13.066406 C 22.359375 13.617188 22.359375 14.507812 22.910156 15.058594 L 28.949219 21.09375 Z M 12.65625 21.09375 "/>
</g>
</svg>
