<svg xmlns="http://www.w3.org/2000/svg" width="623" height="473" viewBox="0 0 623 473" fill="none">
<path d="M0.429963 340.919C1.46942 305.256 24.0732 273.057 65.5986 253.784C83.1108 245.659 101.222 238.819 118.946 231.099C124.566 228.654 129.957 225.559 135.119 222.253C164.012 203.719 173.72 179.328 165.668 146.145C162.215 131.953 157.723 117.92 155.573 103.535C148.315 55.0178 183.956 8.94444 232.792 1.99827C251.961 -0.727444 270.213 1.54105 287.831 9.19063C329.779 27.4089 373.771 34.0034 419.208 32.7021C448.242 31.8756 477.294 29.8181 506.293 30.627C541.828 31.6294 573.417 44.2204 598.417 70.3521C628.138 101.443 631.045 140.922 606.398 176.075C600.02 185.166 593.149 194.029 585.679 202.241C558.671 231.978 551.818 266.058 562.247 304.324C568.308 326.604 574.457 348.885 579.548 371.394C583.917 390.65 582.807 409.941 574.175 428.071C561.437 454.818 539.062 467.937 510.433 471.735C475.25 476.395 442.375 467.497 410.187 454.678C389.786 446.553 369.349 438.482 349.035 430.129C300.128 410.029 252.313 411.647 204.428 434.578C182.617 445.023 159.819 454.554 136.44 460.446C64.5591 478.506 0.218548 426.225 0.429963 340.919Z" fill="#d10808"/>
</svg>