<?xml version="1.0" standalone="no"?><svg xmlns="http://www.w3.org/2000/svg" viewBox="0 0 1440 320"><path fill="#d6d4d4" fill-opacity="1" d="M0,224L24,224C48,224,96,224,144,218.7C192,213,240,203,288,181.3C336,160,384,128,432,133.3C480,139,528,181,576,181.3C624,181,672,139,720,106.7C768,75,816,53,864,58.7C912,64,960,96,1008,117.3C1056,139,1104,149,1152,165.3C1200,181,1248,203,1296,229.3C1344,256,1392,288,1416,304L1440,320L1440,0L1416,0C1392,0,1344,0,1296,0C1248,0,1200,0,1152,0C1104,0,1056,0,1008,0C960,0,912,0,864,0C816,0,768,0,720,0C672,0,624,0,576,0C528,0,480,0,432,0C384,0,336,0,288,0C240,0,192,0,144,0C96,0,48,0,24,0L0,0Z"></path></svg>