<?xml version="1.0" encoding="UTF-8"?>
<svg xmlns="http://www.w3.org/2000/svg" xmlns:xlink="http://www.w3.org/1999/xlink" width="50px" height="50px" viewBox="0 0 50 50" version="1.1">
<g id="surface1">
<path style=" stroke:none;fill-rule:evenodd;fill:rgb(0%,0%,0%);fill-opacity:1;" d="M 3.125 25 C 3.125 37.082031 12.917969 46.875 25 46.875 C 37.082031 46.875 46.875 37.082031 46.875 25 C 46.875 12.917969 37.082031 3.125 25 3.125 C 12.917969 3.125 3.125 12.917969 3.125 25 Z M 50 25 C 50 38.808594 38.808594 50 25 50 C 11.191406 50 0 38.808594 0 25 C 0 11.191406 11.191406 0 25 0 C 38.808594 0 50 11.191406 50 25 Z M 26.5625 35.9375 C 26.5625 36.800781 25.863281 37.5 25 37.5 C 24.136719 37.5 23.4375 36.800781 23.4375 35.9375 L 23.4375 17.835938 L 16.730469 24.542969 C 16.121094 25.15625 15.128906 25.15625 14.519531 24.542969 C 13.90625 23.933594 13.90625 22.941406 14.519531 22.332031 L 23.894531 12.957031 C 24.1875 12.664062 24.582031 12.496094 25 12.496094 C 25.417969 12.496094 25.8125 12.664062 26.105469 12.957031 L 35.480469 22.332031 C 36.09375 22.941406 36.09375 23.933594 35.480469 24.542969 C 34.871094 25.15625 33.878906 25.15625 33.269531 24.542969 L 26.5625 17.835938 Z M 26.5625 35.9375 "/>
</g>
</svg>
