<?xml version="1.0" standalone="no"?><svg xmlns="http://www.w3.org/2000/svg" viewBox="0 0 1440 320"><path fill="#901717" fill-opacity="1" d="M0,160L30,170.7C60,181,120,203,180,218.7C240,235,300,245,360,213.3C420,181,480,107,540,96C600,85,660,139,720,154.7C780,171,840,149,900,149.3C960,149,1020,171,1080,160C1140,149,1200,107,1260,80C1320,53,1380,43,1410,37.3L1440,32L1440,0L1410,0C1380,0,1320,0,1260,0C1200,0,1140,0,1080,0C1020,0,960,0,900,0C840,0,780,0,720,0C660,0,600,0,540,0C480,0,420,0,360,0C300,0,240,0,180,0C120,0,60,0,30,0L0,0Z"></path></svg>