<?xml version="1.0" standalone="no"?><svg xmlns="http://www.w3.org/2000/svg" viewBox="0 0 1440 320"><path fill="#901717" fill-opacity="1" d="M0,64L26.7,58.7C53.3,53,107,43,160,53.3C213.3,64,267,96,320,122.7C373.3,149,427,171,480,192C533.3,213,587,235,640,229.3C693.3,224,747,192,800,170.7C853.3,149,907,139,960,149.3C1013.3,160,1067,192,1120,197.3C1173.3,203,1227,181,1280,181.3C1333.3,181,1387,203,1413,213.3L1440,224L1440,320L1413.3,320C1386.7,320,1333,320,1280,320C1226.7,320,1173,320,1120,320C1066.7,320,1013,320,960,320C906.7,320,853,320,800,320C746.7,320,693,320,640,320C586.7,320,533,320,480,320C426.7,320,373,320,320,320C266.7,320,213,320,160,320C106.7,320,53,320,27,320L0,320Z"></path></svg>